<svg
  xmlns="http://www.w3.org/2000/svg"
  width="40"
  height="40"
  viewBox="0 0 40 40"
>
  <defs>
    <linearGradient id="brain-bg" x1="0%" y1="0%" x2="100%" y2="100%">
      <stop offset="0%" stop-color="#2563eb" />
      <stop offset="100%" stop-color="#9333ea" />
    </linearGradient>
  </defs>

  <!-- Gradient background with rounded corners -->
  <rect width="40" height="40" rx="12" fill="url(#brain-bg)" />

  <!-- Brain icon with white stroke -->
  <g
    fill="none"
    stroke="white"
    stroke-width="2.5"
    stroke-linecap="round"
    stroke-linejoin="round"
    transform="scale(1.4) translate(2, 2)"
  >
    <path d="M12 18V5"></path>
    <path d="M15 13a4.17 4.17 0 0 1-3-4 4.17 4.17 0 0 1-3 4"></path>
    <path d="M17.598 6.5A3 3 0 1 0 12 5a3 3 0 1 0-5.598 1.5"></path>
    <path d="M17.997 5.125a4 4 0 0 1 2.526 5.77"></path>
    <path d="M18 18a4 4 0 0 0 2-7.464"></path>
    <path d="M19.967 17.483A4 4 0 1 1 12 18a4 4 0 1 1-7.967-.517"></path>
    <path d="M6 18a4 4 0 0 1-2-7.464"></path>
    <path d="M6.003 5.125a4 4 0 0 0-2.526 5.77"></path>
  </g>
</svg>
